<svg xmlns="http://www.w3.org/2000/svg" viewBox="0 0 100 148">
    <rect x="5" y="5" height="20" width="18" fill="none" stroke="#f00" stroke-width="0.5"/>
    <rect x="5" y="20" height="5" width="18" fill="#f00"/>
    <text x="14" y="18" font-family="sans-serif" font-size="15" font-weight="bold" text-anchor="middle" fill="#f00">巳</text>
    <text x="14" y="24" font-family="sans-serif" font-size="4" font-weight="bold" fill="#fff">HYB</text>
    
    <text x="14" y="27.2" font-family="sans-serif" font-size="2" text-anchor="middle" fill="#000">オンライン限定</text>
    
    <text x="50" y="7" font-family="sans-serif" font-size="3" text-anchor="middle" font-weight="bold" fill="#f00">オンライン年賀はがき</text>
    
    <rect x="44" y="10" height="6" width="4.5" fill="none" stroke="#f00" stroke-width="0.8"/>
    <rect x="51" y="10" height="6" width="4.5" fill="none" stroke="#f00" stroke-width="0.8"/>
    <rect x="58" y="10" height="6" width="4.5" fill="none" stroke="#f00" stroke-width="0.8"/>
    <line x1="64" y1="13" x2="68" y2="13" stroke="#f00" stroke-width="0.5"/>
    <rect x="70" y="10" height="6" width="4.5" fill="none" stroke="#f00" stroke-width="0.5"/>
    <rect x="77" y="10" height="6" width="4.5" fill="none" stroke="#f00" stroke-width="0.5"/>
    <rect x="84" y="10" height="6" width="4.5" fill="none" stroke="#f00" stroke-width="0.5"/>
    <rect x="91" y="10" height="6" width="4.5" fill="none" stroke="#f00" stroke-width="0.5"/>
    
    <circle cx="14.5" cy="40" r="9" fill="none" stroke="#f00" stroke-width="0.5"/>
    <text x="14.5" y="43" font-family="sans-serif" font-size="8" text-anchor="middle" fill="#f00">年賀</text>
    
    <text x="20" y="90" font-family="sans-serif" font-weight="bold" font-size="8" writing-mode="tb">はやぶ</text>
    
    <rect x="5" y="127" height="4" width="2.5" fill="none" stroke="#f00" stroke-width="0.2" stroke-dasharray="0.2"/>
    <rect x="8" y="127" height="4" width="2.5" fill="none" stroke="#f00" stroke-width="0.2" stroke-dasharray="0.2"/>
    <rect x="11" y="127" height="4" width="2.5" fill="none" stroke="#f00" stroke-width="0.2" stroke-dasharray="0.2"/>
    <rect x="14" y="127" height="4" width="2.5" fill="none" stroke="#f00" stroke-width="0.2" stroke-dasharray="0.2"/>
    <rect x="17" y="127" height="4" width="2.5" fill="none" stroke="#f00" stroke-width="0.2" stroke-dasharray="0.2"/>
    <rect x="20" y="127" height="4" width="2.5" fill="none" stroke="#f00" stroke-width="0.2" stroke-dasharray="0.2"/>
    <rect x="23" y="127" height="4" width="2.5" fill="none" stroke="#f00" stroke-width="0.2" stroke-dasharray="0.2"/>
    
    <text x="5" y="133.5" font-family="sans-serif" font-size="2" fill="#f00">このはがきは郵送に使用できません。このはがきには切手に似せた装飾がありますが、偽物です。</text>
    
    <rect x="5" y="135" height="10" width="29" fill="#f55"/>
    <rect x="35.5" y="135.25" height="9.5" width="28" fill="none" stroke="#f00" stroke-width="0.5"/>
    <text x="52" y="139" font-family="sans-serif" font-size="3" font-weight="bold" fill="#f00">令和7年</text>
    <text x="56.5" y="143" font-family="sans-serif" font-size="3" font-weight="bold" fill="#f00">年賀</text>
    <rect x="65" y="135" height="10" width="29" fill="#f55"/>
</svg>